<svg width="257" height="61" viewBox="0 0 257 61" fill="none" xmlns="http://www.w3.org/2000/svg">
<path opacity="0.85" d="M21.9578 2.65541C24.7638 1.01501 28.2362 1.01501 31.0422 2.65541L48.5422 12.886C51.303 14.5 53 17.4578 53 20.6557V40.3443C53 43.5422 51.303 46.5 48.5422 48.114L31.0422 58.3446C28.2362 59.985 24.7638 59.985 21.9578 58.3446L4.45779 48.114C1.69699 46.5 0 43.5422 0 40.3443V20.6557C0 17.4578 1.69699 14.5 4.45779 12.886L21.9578 2.65541Z" fill="url(#paint0_linear_280_126)"/>
<path opacity="0.85" d="M22.9934 8.02968C25.1626 6.77414 27.8375 6.77414 30.0066 8.02968L44.5066 16.4224C46.6687 17.6739 48 19.9827 48 22.4808V38.5192C48 41.0173 46.6687 43.3261 44.5066 44.5776L30.0066 52.9703C27.8375 54.2259 25.1626 54.2259 22.9934 52.9703L8.49336 44.5776C6.3313 43.3261 5 41.0173 5 38.5192V22.4808C5 19.9827 6.3313 17.6739 8.49336 16.4224L22.9934 8.02968Z" fill="url(#paint1_linear_280_126)" stroke="white" stroke-width="2"/>
<path fill-rule="evenodd" clip-rule="evenodd" d="M19.5508 42L12.2057 42L11.3385 40.8269C16.5382 38.0018 19.8645 35.9954 26.4998 35.9954C33.1352 35.9954 36.4618 38.0018 41.6613 40.8269L40.7941 42L33.4491 42C29.7858 38.4769 23.2142 38.4769 19.5508 42ZM30.244 30.2754C33.6218 35.2728 37.4469 37.0944 42.4352 39.7804L43 39.0167L40.6163 35.1417C35.4174 32.9169 30.5971 27.063 32.2497 21.5411L28.2263 15L27.0645 15C27.0645 20.9282 26.5556 24.8187 30.244 30.2754ZM22.7556 30.2754C19.3779 35.2728 15.5526 37.0944 10.5645 39.7804L10 39.0167L12.3834 35.1417C17.5823 32.9169 22.4026 27.063 20.7499 21.5411L24.7734 15L25.935 15C25.9355 20.9282 26.4444 24.8187 22.7556 30.2754ZM26.4998 27.8114C25.5235 30.0557 23.8908 32.4781 22.1661 34.3255C24.8419 33.9152 28.1569 33.9152 30.8318 34.3255C29.1088 32.4783 27.4762 30.0557 26.4998 27.8114Z" fill="white"/>
<path d="M63.776 36V23.472H66.848V26.064H66.968C67.048 25.728 67.168 25.408 67.328 25.104C67.504 24.784 67.728 24.504 68 24.264C68.272 24.024 68.592 23.832 68.96 23.688C69.344 23.544 69.784 23.472 70.28 23.472H70.952V26.376H69.992C68.952 26.376 68.168 26.528 67.64 26.832C67.112 27.136 66.848 27.632 66.848 28.32V36H63.776ZM78.0487 36.288C77.1527 36.288 76.3447 36.136 75.6247 35.832C74.9207 35.528 74.3127 35.088 73.8007 34.512C73.3047 33.936 72.9207 33.248 72.6487 32.448C72.3767 31.632 72.2407 30.72 72.2407 29.712C72.2407 28.704 72.3767 27.8 72.6487 27C72.9207 26.2 73.3047 25.52 73.8007 24.96C74.3127 24.384 74.9207 23.944 75.6247 23.64C76.3447 23.336 77.1527 23.184 78.0487 23.184C78.9447 23.184 79.7527 23.336 80.4727 23.64C81.1927 23.944 81.8007 24.384 82.2967 24.96C82.8087 25.52 83.2007 26.2 83.4727 27C83.7447 27.8 83.8807 28.704 83.8807 29.712C83.8807 30.72 83.7447 31.632 83.4727 32.448C83.2007 33.248 82.8087 33.936 82.2967 34.512C81.8007 35.088 81.1927 35.528 80.4727 35.832C79.7527 36.136 78.9447 36.288 78.0487 36.288ZM78.0487 33.816C78.8647 33.816 79.5047 33.568 79.9687 33.072C80.4327 32.576 80.6647 31.848 80.6647 30.888V28.56C80.6647 27.616 80.4327 26.896 79.9687 26.4C79.5047 25.904 78.8647 25.656 78.0487 25.656C77.2487 25.656 76.6167 25.904 76.1527 26.4C75.6887 26.896 75.4567 27.616 75.4567 28.56V30.888C75.4567 31.848 75.6887 32.576 76.1527 33.072C76.6167 33.568 77.2487 33.816 78.0487 33.816ZM86.6041 18.24H89.6761V25.536H89.7721C89.9961 24.816 90.4201 24.248 91.0441 23.832C91.6681 23.4 92.3961 23.184 93.2281 23.184C94.8281 23.184 96.0441 23.752 96.8761 24.888C97.7241 26.008 98.1481 27.616 98.1481 29.712C98.1481 31.824 97.7241 33.448 96.8761 34.584C96.0441 35.72 94.8281 36.288 93.2281 36.288C92.3961 36.288 91.6681 36.072 91.0441 35.64C90.4361 35.208 90.0121 34.632 89.7721 33.912H89.6761V36H86.6041V18.24ZM92.2441 33.744C93.0441 33.744 93.6921 33.48 94.1881 32.952C94.6841 32.424 94.9321 31.712 94.9321 30.816V28.656C94.9321 27.76 94.6841 27.048 94.1881 26.52C93.6921 25.976 93.0441 25.704 92.2441 25.704C91.5081 25.704 90.8921 25.888 90.3961 26.256C89.9161 26.624 89.6761 27.112 89.6761 27.72V31.704C89.6761 32.36 89.9161 32.864 90.3961 33.216C90.8921 33.568 91.5081 33.744 92.2441 33.744ZM105.963 36.288C105.067 36.288 104.259 36.136 103.539 35.832C102.835 35.528 102.227 35.088 101.715 34.512C101.219 33.936 100.835 33.248 100.563 32.448C100.291 31.632 100.155 30.72 100.155 29.712C100.155 28.704 100.291 27.8 100.563 27C100.835 26.2 101.219 25.52 101.715 24.96C102.227 24.384 102.835 23.944 103.539 23.64C104.259 23.336 105.067 23.184 105.963 23.184C106.859 23.184 107.667 23.336 108.387 23.64C109.107 23.944 109.715 24.384 110.211 24.96C110.723 25.52 111.115 26.2 111.387 27C111.659 27.8 111.795 28.704 111.795 29.712C111.795 30.72 111.659 31.632 111.387 32.448C111.115 33.248 110.723 33.936 110.211 34.512C109.715 35.088 109.107 35.528 108.387 35.832C107.667 36.136 106.859 36.288 105.963 36.288ZM105.963 33.816C106.779 33.816 107.419 33.568 107.883 33.072C108.347 32.576 108.579 31.848 108.579 30.888V28.56C108.579 27.616 108.347 26.896 107.883 26.4C107.419 25.904 106.779 25.656 105.963 25.656C105.163 25.656 104.531 25.904 104.067 26.4C103.603 26.896 103.371 27.616 103.371 28.56V30.888C103.371 31.848 103.603 32.576 104.067 33.072C104.531 33.568 105.163 33.816 105.963 33.816ZM118.336 36C117.28 36 116.472 35.728 115.912 35.184C115.368 34.624 115.096 33.832 115.096 32.808V25.92H113.248V23.472H114.208C114.672 23.472 114.984 23.368 115.144 23.16C115.32 22.936 115.408 22.608 115.408 22.176V20.04H118.168V23.472H120.736V25.92H118.168V33.552H120.544V36H118.336ZM128.251 36.288C127.323 36.288 126.499 36.136 125.779 35.832C125.059 35.528 124.451 35.088 123.955 34.512C123.475 33.936 123.107 33.248 122.851 32.448C122.595 31.632 122.467 30.72 122.467 29.712C122.467 28.704 122.595 27.8 122.851 27C123.107 26.2 123.475 25.52 123.955 24.96C124.451 24.384 125.059 23.944 125.779 23.64C126.499 23.336 127.323 23.184 128.251 23.184C129.515 23.184 130.555 23.464 131.371 24.024C132.203 24.584 132.803 25.36 133.171 26.352L130.651 27.48C130.507 26.952 130.235 26.52 129.835 26.184C129.451 25.832 128.923 25.656 128.251 25.656C127.387 25.656 126.739 25.928 126.307 26.472C125.891 27.016 125.683 27.728 125.683 28.608V30.888C125.683 31.768 125.891 32.48 126.307 33.024C126.739 33.552 127.387 33.816 128.251 33.816C128.987 33.816 129.555 33.632 129.955 33.264C130.355 32.88 130.667 32.408 130.891 31.848L133.243 32.976C132.827 34.08 132.195 34.912 131.347 35.472C130.499 36.016 129.467 36.288 128.251 36.288ZM135.612 36V23.472H138.684V26.064H138.804C138.884 25.728 139.004 25.408 139.164 25.104C139.34 24.784 139.564 24.504 139.836 24.264C140.108 24.024 140.428 23.832 140.796 23.688C141.18 23.544 141.62 23.472 142.116 23.472H142.788V26.376H141.828C140.788 26.376 140.004 26.528 139.476 26.832C138.948 27.136 138.684 27.632 138.684 28.32V36H135.612ZM146.57 21.648C145.93 21.648 145.466 21.504 145.178 21.216C144.906 20.928 144.77 20.56 144.77 20.112V19.632C144.77 19.184 144.906 18.816 145.178 18.528C145.466 18.24 145.93 18.096 146.57 18.096C147.194 18.096 147.65 18.24 147.938 18.528C148.226 18.816 148.37 19.184 148.37 19.632V20.112C148.37 20.56 148.226 20.928 147.938 21.216C147.65 21.504 147.194 21.648 146.57 21.648ZM145.034 23.472H148.106V36H145.034V23.472ZM155.579 36C154.523 36 153.715 35.728 153.155 35.184C152.611 34.624 152.339 33.832 152.339 32.808V25.92H150.491V23.472H151.451C151.915 23.472 152.227 23.368 152.387 23.16C152.563 22.936 152.651 22.608 152.651 22.176V20.04H155.411V23.472H157.979V25.92H155.411V33.552H157.787V36H155.579ZM164.415 36C163.359 36 162.551 35.728 161.991 35.184C161.447 34.624 161.175 33.832 161.175 32.808V25.92H159.327V23.472H160.287C160.751 23.472 161.063 23.368 161.223 23.16C161.399 22.936 161.487 22.608 161.487 22.176V20.04H164.247V23.472H166.815V25.92H164.247V33.552H166.623V36H164.415ZM174.449 36.288C173.521 36.288 172.689 36.136 171.953 35.832C171.233 35.512 170.617 35.072 170.105 34.512C169.609 33.936 169.225 33.248 168.953 32.448C168.681 31.632 168.545 30.72 168.545 29.712C168.545 28.72 168.673 27.824 168.929 27.024C169.201 26.224 169.585 25.544 170.081 24.984C170.577 24.408 171.185 23.968 171.905 23.664C172.625 23.344 173.441 23.184 174.353 23.184C175.329 23.184 176.177 23.352 176.897 23.688C177.617 24.024 178.209 24.48 178.673 25.056C179.137 25.632 179.481 26.304 179.705 27.072C179.945 27.824 180.065 28.632 180.065 29.496V30.504H171.737V30.816C171.737 31.728 171.993 32.464 172.505 33.024C173.017 33.568 173.777 33.84 174.785 33.84C175.553 33.84 176.177 33.68 176.657 33.36C177.153 33.04 177.593 32.632 177.977 32.136L179.633 33.984C179.121 34.704 178.417 35.272 177.521 35.688C176.641 36.088 175.617 36.288 174.449 36.288ZM174.401 25.488C173.585 25.488 172.937 25.76 172.457 26.304C171.977 26.848 171.737 27.552 171.737 28.416V28.608H176.873V28.392C176.873 27.528 176.657 26.832 176.225 26.304C175.809 25.76 175.201 25.488 174.401 25.488ZM182.768 36V23.472H185.84V26.064H185.96C186.04 25.728 186.16 25.408 186.32 25.104C186.496 24.784 186.72 24.504 186.992 24.264C187.264 24.024 187.584 23.832 187.952 23.688C188.336 23.544 188.776 23.472 189.272 23.472H189.944V26.376H188.984C187.944 26.376 187.16 26.528 186.632 26.832C186.104 27.136 185.84 27.632 185.84 28.32V36H182.768ZM196.294 36.288C195.094 36.288 194.086 36.088 193.27 35.688C192.454 35.272 191.734 34.704 191.11 33.984L192.982 32.16C193.446 32.688 193.95 33.104 194.494 33.408C195.054 33.712 195.694 33.864 196.414 33.864C197.15 33.864 197.678 33.736 197.998 33.48C198.334 33.224 198.502 32.872 198.502 32.424C198.502 32.056 198.382 31.768 198.142 31.56C197.918 31.336 197.526 31.184 196.966 31.104L195.718 30.936C194.358 30.76 193.318 30.376 192.598 29.784C191.894 29.176 191.542 28.296 191.542 27.144C191.542 26.536 191.654 25.992 191.878 25.512C192.102 25.016 192.422 24.6 192.838 24.264C193.254 23.912 193.75 23.648 194.326 23.472C194.918 23.28 195.574 23.184 196.294 23.184C196.902 23.184 197.438 23.232 197.902 23.328C198.382 23.408 198.814 23.536 199.198 23.712C199.582 23.872 199.934 24.08 200.254 24.336C200.574 24.576 200.886 24.848 201.19 25.152L199.39 26.952C199.022 26.568 198.582 26.248 198.07 25.992C197.558 25.736 196.998 25.608 196.39 25.608C195.718 25.608 195.23 25.728 194.926 25.968C194.638 26.208 194.494 26.52 194.494 26.904C194.494 27.32 194.614 27.64 194.854 27.864C195.11 28.072 195.534 28.224 196.126 28.32L197.398 28.488C200.102 28.872 201.454 30.104 201.454 32.184C201.454 32.792 201.326 33.352 201.07 33.864C200.83 34.36 200.486 34.792 200.038 35.16C199.59 35.512 199.046 35.792 198.406 36C197.782 36.192 197.078 36.288 196.294 36.288ZM205.803 36.264C205.147 36.264 204.659 36.104 204.339 35.784C204.035 35.448 203.883 35.024 203.883 34.512V34.08C203.883 33.568 204.035 33.144 204.339 32.808C204.659 32.472 205.147 32.304 205.803 32.304C206.475 32.304 206.963 32.472 207.267 32.808C207.571 33.144 207.723 33.568 207.723 34.08V34.512C207.723 35.024 207.571 35.448 207.267 35.784C206.963 36.104 206.475 36.264 205.803 36.264ZM215.767 36.288C214.839 36.288 214.015 36.136 213.295 35.832C212.575 35.528 211.967 35.088 211.471 34.512C210.991 33.936 210.623 33.248 210.367 32.448C210.111 31.632 209.983 30.72 209.983 29.712C209.983 28.704 210.111 27.8 210.367 27C210.623 26.2 210.991 25.52 211.471 24.96C211.967 24.384 212.575 23.944 213.295 23.64C214.015 23.336 214.839 23.184 215.767 23.184C217.031 23.184 218.071 23.464 218.887 24.024C219.719 24.584 220.319 25.36 220.687 26.352L218.167 27.48C218.023 26.952 217.751 26.52 217.351 26.184C216.967 25.832 216.439 25.656 215.767 25.656C214.903 25.656 214.255 25.928 213.823 26.472C213.407 27.016 213.199 27.728 213.199 28.608V30.888C213.199 31.768 213.407 32.48 213.823 33.024C214.255 33.552 214.903 33.816 215.767 33.816C216.503 33.816 217.071 33.632 217.471 33.264C217.871 32.88 218.183 32.408 218.407 31.848L220.759 32.976C220.343 34.08 219.711 34.912 218.863 35.472C218.015 36.016 216.983 36.288 215.767 36.288ZM227.978 36.288C227.082 36.288 226.274 36.136 225.554 35.832C224.85 35.528 224.242 35.088 223.73 34.512C223.234 33.936 222.85 33.248 222.578 32.448C222.306 31.632 222.17 30.72 222.17 29.712C222.17 28.704 222.306 27.8 222.578 27C222.85 26.2 223.234 25.52 223.73 24.96C224.242 24.384 224.85 23.944 225.554 23.64C226.274 23.336 227.082 23.184 227.978 23.184C228.874 23.184 229.682 23.336 230.402 23.64C231.122 23.944 231.73 24.384 232.226 24.96C232.738 25.52 233.13 26.2 233.402 27C233.674 27.8 233.81 28.704 233.81 29.712C233.81 30.72 233.674 31.632 233.402 32.448C233.13 33.248 232.738 33.936 232.226 34.512C231.73 35.088 231.122 35.528 230.402 35.832C229.682 36.136 228.874 36.288 227.978 36.288ZM227.978 33.816C228.794 33.816 229.434 33.568 229.898 33.072C230.362 32.576 230.594 31.848 230.594 30.888V28.56C230.594 27.616 230.362 26.896 229.898 26.4C229.434 25.904 228.794 25.656 227.978 25.656C227.178 25.656 226.546 25.904 226.082 26.4C225.618 26.896 225.386 27.616 225.386 28.56V30.888C225.386 31.848 225.618 32.576 226.082 33.072C226.546 33.568 227.178 33.816 227.978 33.816ZM236.534 36V23.472H239.606V25.56H239.726C239.966 24.904 240.35 24.344 240.878 23.88C241.406 23.416 242.142 23.184 243.086 23.184C243.95 23.184 244.694 23.392 245.318 23.808C245.942 24.224 246.406 24.856 246.71 25.704H246.758C246.982 25 247.422 24.408 248.078 23.928C248.75 23.432 249.59 23.184 250.598 23.184C251.83 23.184 252.774 23.608 253.43 24.456C254.102 25.304 254.438 26.512 254.438 28.08V36H251.366V28.392C251.366 26.6 250.694 25.704 249.35 25.704C249.046 25.704 248.75 25.752 248.462 25.848C248.19 25.928 247.942 26.056 247.718 26.232C247.51 26.392 247.342 26.6 247.214 26.856C247.086 27.096 247.022 27.384 247.022 27.72V36H243.95V28.392C243.95 26.6 243.278 25.704 241.934 25.704C241.646 25.704 241.358 25.752 241.07 25.848C240.798 25.928 240.55 26.056 240.326 26.232C240.118 26.392 239.942 26.6 239.798 26.856C239.67 27.096 239.606 27.384 239.606 27.72V36H236.534Z" fill="#424242"/>
<defs>
<linearGradient id="paint0_linear_280_126" x1="40.5" y1="8" x2="47.4991" y2="47.6259" gradientUnits="userSpaceOnUse">
<stop stop-color="#FE9CF4"/>
<stop offset="1" stop-color="#00E0B8"/>
</linearGradient>
<linearGradient id="paint1_linear_280_126" x1="13.5" y1="7.5" x2="42.5" y2="51.5" gradientUnits="userSpaceOnUse">
<stop stop-color="#016ED2"/>
<stop offset="1" stop-color="#00E0FF"/>
</linearGradient>
</defs>
</svg>
